<svg width="1600" height="980" viewBox="0 0 1600 980" fill="none" xmlns="http://www.w3.org/2000/svg">
  <defs>
    <linearGradient id="bg" x1="0" y1="0" x2="1600" y2="980" gradientUnits="userSpaceOnUse">
      <stop stop-color="#0B111C"/>
      <stop offset="1" stop-color="#130C20"/>
    </linearGradient>
    <linearGradient id="panelGrad" x1="0" y1="0" x2="0" y2="1">
      <stop stop-color="#131D2E"/>
      <stop offset="1" stop-color="#0E1726"/>
    </linearGradient>
    <filter id="glow" x="-20%" y="-20%" width="140%" height="140%">
      <feGaussianBlur stdDeviation="6" result="blur"/>
      <feMerge><feMergeNode in="blur"/><feMergeNode in="SourceGraphic"/></feMerge>
    </filter>
    <style>
      .title    { font: 800 52px 'Segoe UI', Arial, sans-serif; fill: #FFFFFF; }
      .subtitle { font: 500 22px 'Segoe UI', Arial, sans-serif; fill: #C0D0DD; }
      .label    { font: 700 22px 'Segoe UI', Arial, sans-serif; fill: #FFFFFF; }
      .small    { font: 500 16px 'Segoe UI', Arial, sans-serif; fill: #B8CAD8; }
      .caps     { font: 800 13px 'Segoe UI', Arial, sans-serif; fill: #95F3FF; letter-spacing: 2px; }
      .zone     { font: 700 13px 'Segoe UI', Arial, sans-serif; letter-spacing: 1px; }
      .tiny     { font: 500 13px 'Segoe UI', Arial, sans-serif; fill: #7090A8; }
    </style>
  </defs>

  <!-- Main background -->
  <rect width="1600" height="980" rx="36" fill="url(#bg)"/>

  <!-- Title block -->
  <text x="80" y="88" class="title">AGENT LEE — APP LAYOUT BLUEPRINT</text>
  <text x="80" y="126" class="subtitle">Shell anatomy: header bar · main canvas · page routes · unified console · widget mode · nav dock</text>

  <!-- ═══════════════════════════════════════════════════════
       SHELL FRAME (dark card)
  ═══════════════════════════════════════════════════════ -->
  <rect x="100" y="162" width="1400" height="768" rx="28" fill="#0F1A28" stroke="#1E3248" stroke-width="2"/>

  <!-- HEADER BAR -->
  <rect x="100" y="162" width="1400" height="80" rx="28" fill="#11202E" stroke="#22374F" stroke-width="1.5"/>
  <rect x="100" y="210"  width="1400" height="32" fill="#11202E"/>
  <!-- Header contents -->
  <rect x="124" y="182" width="220" height="40" rx="12" fill="#1B2F44" stroke="#2E4D6A" stroke-width="1.5"/>
  <text x="144" y="208" class="zone" fill="#FFD700">⬡ AGENT LEE</text>
  <rect x="370" y="184" width="130" height="36" rx="10" fill="#162231" stroke="#1F3347"/>
  <text x="399" y="207" class="tiny" fill="#64B6E8">System</text>
  <rect x="516" y="184" width="130" height="36" rx="10" fill="#162231" stroke="#1F3347"/>
  <text x="547" y="207" class="tiny" fill="#64B6E8">Engines</text>
  <rect x="662" y="184" width="130" height="36" rx="10" fill="#162231" stroke="#1F3347"/>
  <text x="695" y="207" class="tiny" fill="#64B6E8">Status</text>
  <!-- Status pill -->
  <rect x="1280" y="185" width="100" height="34" rx="10" fill="#0E2518" stroke="#22C55E" stroke-width="1.5"/>
  <text x="1305" y="207" class="tiny" fill="#22C55E">● LIVE</text>
  <!-- Widget toggle -->
  <rect x="1398" y="185" width="88" height="34" rx="10" fill="#1A1130" stroke="#6D4AFF" stroke-width="1.5"/>
  <text x="1415" y="207" class="tiny" fill="#9B7CFF">Widget</text>
  <!-- Header label -->
  <text x="124" y="252" class="caps">HEADER / NAVIGATION BAR</text>

  <!-- ═══════════════════════════════════════════════════════
       MAIN CONTENT PLANE
  ═══════════════════════════════════════════════════════ -->
  <rect x="120" y="270" width="1360" height="490" rx="18" fill="#0D1623" stroke="#1A2E44" stroke-width="1.5"/>
  <text x="144" y="302" class="caps">MAIN CONTENT PLANE — ACTIVE ROUTE SURFACE</text>

  <!-- Page route cards — row 1 -->
  <!-- Home -->
  <rect x="144" y="316" width="280" height="130" rx="16" fill="#122236" stroke="#22D3EE" stroke-width="2"/>
  <text x="164" y="344" class="caps" fill="#22D3EE">G1 · HOME</text>
  <text x="164" y="374" class="label">Home</text>
  <text x="164" y="400" class="small" font-size="13">Welcome, status, quick-launch</text>
  <text x="164" y="420" class="small" font-size="13">Lee greeting + orb</text>

  <!-- Diagnostics -->
  <rect x="444" y="316" width="280" height="130" rx="16" fill="#1E0E0E" stroke="#EF4444" stroke-width="2"/>
  <text x="464" y="344" class="caps" fill="#EF4444">G7 · DIAGNOSTICS</text>
  <text x="464" y="374" class="label">Diagnostics</text>
  <text x="464" y="400" class="small" font-size="13">Health, agent uptime, logs</text>
  <text x="464" y="420" class="small" font-size="13">Shield-led sweep panel</text>

  <!-- Memory Lake -->
  <rect x="744" y="316" width="280" height="130" rx="16" fill="#0E1F14" stroke="#22C55E" stroke-width="2"/>
  <text x="764" y="344" class="caps" fill="#22C55E">G5 · MEMORY</text>
  <text x="764" y="374" class="label">Memory Lake</text>
  <text x="764" y="400" class="small" font-size="13">Long-term recall, knowledge</text>
  <text x="764" y="420" class="small" font-size="13">Sage dream index</text>

  <!-- Code Studio -->
  <rect x="1044" y="316" width="280" height="130" rx="16" fill="#1C1004" stroke="#F97316" stroke-width="2"/>
  <text x="1064" y="344" class="caps" fill="#F97316">G3 · ENGINEERING</text>
  <text x="1064" y="374" class="label">Code Studio</text>
  <text x="1064" y="400" class="small" font-size="13">VM tasks, build, file ops</text>
  <text x="1064" y="420" class="small" font-size="13">Nova Forge powered</text>

  <!-- Page route cards — row 2 -->
  <!-- Creators Studio -->
  <rect x="144" y="466" width="280" height="130" rx="16" fill="#200A18" stroke="#EC4899" stroke-width="2"/>
  <text x="164" y="494" class="caps" fill="#EC4899">G4 · CREATIVE</text>
  <text x="164" y="524" class="label">Creators Studio</text>
  <text x="164" y="550" class="small" font-size="13">SVG, voxel, brand, media</text>
  <text x="164" y="570" class="small" font-size="13">Pixel + Aria + Echo</text>

  <!-- Database Hub -->
  <rect x="444" y="466" width="280" height="130" rx="16" fill="#100C26" stroke="#8B5CF6" stroke-width="2"/>
  <text x="464" y="494" class="caps" fill="#8B5CF6">G5 · DATA</text>
  <text x="464" y="524" class="label">Database Hub</text>
  <text x="464" y="550" class="small" font-size="13">Firebase, schema, queries</text>
  <text x="464" y="570" class="small" font-size="13">Sage + archive layer</text>

  <!-- Deployment -->
  <rect x="744" y="466" width="280" height="130" rx="16" fill="#001520" stroke="#00BFFF" stroke-width="2"/>
  <text x="764" y="494" class="caps" fill="#00BFFF">G6 · DEPLOYMENT</text>
  <text x="764" y="524" class="label">Deployment</text>
  <text x="764" y="550" class="small" font-size="13">Release, CI/CD, envs</text>
  <text x="764" y="570" class="small" font-size="13">Nexus-led launch gate</text>

  <!-- Governance -->
  <rect x="1044" y="466" width="280" height="130" rx="16" fill="#130D2A" stroke="#7C3AED" stroke-width="2"/>
  <text x="1064" y="494" class="caps" fill="#7C3AED">G8 · GOVERNANCE</text>
  <text x="1064" y="524" class="label">Gov Console</text>
  <text x="1064" y="550" class="small" font-size="13">Audit, standards, health</text>
  <text x="1064" y="570" class="small" font-size="13">Marshal + Corps panel</text>

  <!-- Row 3 — wide Universe panel -->
  <rect x="144" y="616" width="580" height="124" rx="16" fill="#0C1B2C" stroke="#FFD700" stroke-width="2"/>
  <text x="164" y="644" class="caps" fill="#FFD700">LEE WAY UNIVERSE · 3-D</text>
  <text x="164" y="674" class="label">LeeWay Universe</text>
  <text x="164" y="700" class="small" font-size="13">Three.js orbital canvas · all agents as celestial bodies</text>

  <!-- Agent panel -->
  <rect x="744" y="616" width="580" height="124" rx="16" fill="#0F1E18" stroke="#10B981" stroke-width="2"/>
  <text x="764" y="644" class="caps" fill="#10B981">AGENT TEAM PANEL</text>
  <text x="764" y="674" class="label">Agent Team &amp; Chat</text>
  <text x="764" y="700" class="small" font-size="13">Agent picker, active status, multi-agent console</text>

  <!-- ═══════════════════════════════════════════════════════
       UNIFIED CONSOLE BAR
  ═══════════════════════════════════════════════════════ -->
  <rect x="100" y="776" width="1400" height="84" rx="0" fill="#0C1825" stroke="#1A2E44" stroke-width="1.5"/>
  <rect x="100" y="836" width="1400" height="24" rx="0" fill="#0C1825"/>
  <rect x="100" y="836" width="1400" height="14" rx="14" fill="#0C1825"/>
  <!-- Console bar contents -->
  <rect x="130" y="792" width="880" height="50" rx="14" fill="#111F30" stroke="#1E3550" stroke-width="1.5"/>
  <text x="154" y="823" class="small" fill="#607D90">Chat · Command · Query · Intent router entry</text>
  <rect x="1028" y="792" width="120" height="50" rx="14" fill="#122A1E" stroke="#22C55E" stroke-width="1.5"/>
  <text x="1053" y="823" class="small" fill="#22C55E">Send ↑</text>
  <rect x="1164" y="792" width="88" height="50" rx="14" fill="#16102E" stroke="#6D4AFF" stroke-width="1.5"/>
  <text x="1180" y="823" class="small" fill="#9B7CFF">Voice</text>
  <rect x="1268" y="792" width="88" height="50" rx="14" fill="#1A1010" stroke="#EF4444" stroke-width="1.5"/>
  <text x="1284" y="823" class="small" fill="#EF4444">Stop</text>
  <rect x="1372" y="792" width="108" height="50" rx="14" fill="#1C0C00" stroke="#F97316" stroke-width="1.5"/>
  <text x="1385" y="823" class="small" fill="#F97316">History</text>
  <text x="130" y="858" class="caps" fill="#2E4A62">UNIFIED CONSOLE — CHAT · NAVIGATION DOCK · QUICK ACTIONS · STATUS LAYER</text>

  <!-- Bottom footer note -->
  <text x="80" y="946" class="tiny">Presentation asset: shell anatomy for onboarding, investor decks, and in-app explainability. Each panel maps to a real route in App.tsx.</text>
</svg>